<svg xmlns="http://www.w3.org/2000/svg" width="19" height="18" viewBox="0 0 19 18">
    <g fill="#222" fill-rule="nonzero">
        <path d="M4.3 6.348C2.42 6.303.797 5.989 0 5.674V3.597c1.154.416 2.845.638 4.75.638.453 0 .894-.012 1.318-.037-.7.612-1.3 1.338-1.769 2.15zM3.24 9.47C1.822 9.358.644 9.104 0 8.85V6.773c.956.345 2.28.557 3.788.62A8.434 8.434 0 0 0 3.24 9.47zm.181 3.19c-1.498-.104-2.75-.368-3.421-.633V9.95c.822.296 1.917.494 3.167.584v.054c0 .715.088 1.409.254 2.072zM4.75 3.176C2.127 3.176 0 2.466 0 1.588 0 .711 2.127 0 4.75 0S9.5.711 9.5 1.588c0 .877-2.127 1.588-4.75 1.588zM11.611 18c-4.08 0-7.389-3.318-7.389-7.412 0-4.093 3.308-7.412 7.39-7.412 4.08 0 7.388 3.319 7.388 7.412C19 14.682 15.692 18 11.611 18zm2.664-3.776c.436-.437.654-.974.654-1.611 0-.535-.132-.962-.395-1.281a2.324 2.324 0 0 0-.941-.696 11.05 11.05 0 0 0-1.406-.431 12.03 12.03 0 0 1-.954-.272 1.581 1.581 0 0 1-.564-.324.698.698 0 0 1-.224-.537c0-.315.127-.567.382-.756.255-.189.595-.283 1.018-.283.37 0 .681.05.936.153.255.102.543.256.865.46.133.08.237.13.312.154a.795.795 0 0 0 .241.035c.157 0 .296-.074.418-.224a.8.8 0 0 0 .182-.52.812.812 0 0 0-.076-.365.718.718 0 0 0-.253-.272 4.403 4.403 0 0 0-1.99-.802v-.65a.695.695 0 0 0-.193-.513.69.69 0 0 0-.512-.195.696.696 0 0 0-.506.195.684.684 0 0 0-.2.513v.673c-.73.126-1.32.417-1.771.874a2.252 2.252 0 0 0-.677 1.64c0 .544.135.976.406 1.299.27.323.594.559.97.708.377.15.856.3 1.436.449.4.11.707.2.918.271.212.071.39.17.536.295a.612.612 0 0 1 .218.484.864.864 0 0 1-.377.75c-.251.177-.612.266-1.083.266a3.5 3.5 0 0 1-1.018-.148 4.768 4.768 0 0 1-1.03-.466c-.219-.126-.403-.19-.552-.19-.157 0-.297.076-.418.225a.8.8 0 0 0-.183.52c0 .15.026.273.077.371.05.099.14.187.265.266.306.22.66.401 1.065.543a5.2 5.2 0 0 0 1.253.272v.637c0 .212.067.384.2.513.133.13.302.195.506.195a.69.69 0 0 0 .512-.195.695.695 0 0 0 .194-.513v-.673c.738-.126 1.324-.407 1.76-.844z"/>
    </g>
</svg>
