<?xml version="1.0" encoding="UTF-8"?>
<svg width="18px" height="17px" viewBox="0 0 18 17" version="1.1" xmlns="http://www.w3.org/2000/svg" xmlns:xlink="http://www.w3.org/1999/xlink">
    <!-- Generator: sketchtool 52.4 (67378) - http://www.bohemiancoding.com/sketch -->
    <title>354923C8-0AE9-4BFB-BB58-B509827AA1E8</title>
    <desc>Created with sketchtool.</desc>
    <g id="Archives-+-WIP" stroke="none" stroke-width="1" fill="none" fill-rule="evenodd">
        <g id="SS_Home-1-" transform="translate(-139.000000, -180.000000)">
            <rect x="0" y="0" width="375" height="2081"></rect>
            <g id="Group-7" transform="translate(13.000000, 122.000000)">
                <g id="Group-5">
                    <g id="Group-6" transform="translate(126.000000, 51.000000)">
                        <g id="Group" transform="translate(0.000000, 0.628741)"></g>
                    </g>
                </g>
            </g>
            <g id="WIP-tile" transform="translate(12.000000, 174.000000)">
                <g id="List-/-Story---Search"></g>
            </g>
            <g id="Group-12" transform="translate(139.000000, 180.000000)" fill="#ff6612" fill-rule="nonzero">
                <path d="M4.07317439,5.99496192 C2.29325115,5.95304555 0.756297626,5.65631457 -4.6579407e-13,5.35873405 L-2.62012634e-13,3.39675684 C1.09368378,3.79011006 2.69550369,4 4.5,4 C4.92900362,4 5.34655177,3.98813681 5.74853987,3.96476553 C5.0847309,4.54285632 4.51719759,5.22866661 4.07317439,5.99496192 Z M3.06911842,8.94368969 C1.72657141,8.83794141 0.609651613,8.59861374 -4.6579407e-13,8.35873405 L-2.62012634e-13,6.39675684 C0.905696477,6.72249874 2.15986014,6.92242605 3.58902006,6.98153105 C3.33659533,7.60065593 3.15949968,8.2585039 3.06911842,8.94368969 Z M3.24094483,11.9564005 C1.82211956,11.8582189 0.635479795,11.6087764 -4.65960603e-13,11.3587341 L-2.62012634e-13,9.39675684 C0.779035697,9.67694405 1.81588821,9.86404611 3.00016221,9.94851226 C3.00005412,9.96566209 3,9.98282473 3,10 C3,10.6749155 3.08357659,11.3303107 3.24094483,11.9564005 Z M4.5,3 C2.01471863,3 -1.55431223e-13,2.32842712 -1.55431223e-13,1.5 C-1.55431223e-13,0.671572875 2.01471863,0 4.5,0 C6.98528137,0 9,0.671572875 9,1.5 C9,2.32842712 6.98528137,3 4.5,3 Z" id="Combined-Shape"></path>
                <path d="M11,17 C7.13400675,17 4,13.8659932 4,10 C4,6.13400675 7.13400675,3 11,3 C14.8659932,3 18,6.13400675 18,10 C18,13.8659932 14.8659932,17 11,17 Z M13.5241119,13.4338862 C13.9366107,13.0213874 14.142857,12.514133 14.142857,11.9121077 C14.142857,11.4067037 14.018366,11.0035015 13.7693802,10.7024888 C13.5203944,10.4014762 13.2231025,10.1822234 12.8774953,10.0447238 C12.5318882,9.90722416 12.0878083,9.77158469 11.5452423,9.63780129 C11.158757,9.54117995 10.8577488,9.4557085 10.6422089,9.38138439 C10.426669,9.30706028 10.2482938,9.20486616 10.107078,9.07479897 C9.96586218,8.94473178 9.89525534,8.77564696 9.89525534,8.56753946 C9.89525534,8.27024301 10.0160302,8.03240943 10.2575836,7.85403156 C10.4991369,7.6756537 10.8205839,7.58646611 11.2219341,7.58646611 C11.5712574,7.58646611 11.8666913,7.63477605 12.1082447,7.7313974 C12.349798,7.82801874 12.622935,7.97294858 12.9276639,8.16619127 C13.0540149,8.24051538 13.1524928,8.28882532 13.2231007,8.31112256 C13.2937086,8.33341979 13.3698897,8.34456824 13.4516462,8.34456824 C13.6002945,8.34456824 13.7322178,8.27396139 13.8474201,8.13274558 C13.9626225,7.99152977 14.0202228,7.82801918 14.0202228,7.64220891 C14.0202228,7.50842551 13.9960679,7.39322487 13.9477572,7.29660352 C13.8994465,7.19998218 13.8195493,7.11451074 13.7080631,7.04018663 C13.1209027,6.62397161 12.4928733,6.37127342 11.8239564,6.28208449 L11.8239564,5.66891365 C11.8239564,5.46823855 11.7626399,5.30658604 11.6400051,5.18395125 C11.5173703,5.06131647 11.3557178,5 11.1550427,5 C10.9618,5 10.8020056,5.06131647 10.6756546,5.18395125 C10.5493036,5.30658604 10.4861291,5.46823855 10.4861291,5.66891365 L10.4861291,6.30438161 C9.79491483,6.42330019 9.23563429,6.69829527 8.80827066,7.12937511 C8.38090702,7.56045495 8.16722841,8.07699977 8.16722841,8.67902506 C8.16722841,9.19186142 8.29543558,9.6006379 8.55185376,9.90536675 C8.80827194,10.2100956 9.1148543,10.4330646 9.47161003,10.5742804 C9.82836575,10.7154962 10.281736,10.8567099 10.8317344,10.9979257 C11.2107874,11.1019795 11.5006471,11.1874509 11.7013222,11.2543426 C11.9019973,11.3212343 12.0710821,11.4141381 12.2085817,11.5330566 C12.3460813,11.6519752 12.4148301,11.8043373 12.4148301,11.9901476 C12.4148301,12.2948765 12.2959133,12.530852 12.0580761,12.6980812 C11.820239,12.8653105 11.4783532,12.9489238 11.0324085,12.9489238 C10.69795,12.9489238 10.3765031,12.902472 10.068058,12.8095668 C9.75961297,12.7166617 9.43444987,12.5698738 9.09255896,12.3691987 C8.88445145,12.2502801 8.70979241,12.1908217 8.5685766,12.1908217 C8.41992838,12.1908217 8.28800506,12.2614286 8.17280269,12.4026444 C8.05760032,12.5438602 8,12.7073708 8,12.893181 C8,13.0343969 8.02415497,13.1514556 8.07246565,13.2443607 C8.12077632,13.3372658 8.20438969,13.4208792 8.32330826,13.4952033 C8.61317229,13.7033108 8.94948385,13.8742537 9.33225302,14.0080371 C9.71502218,14.1418205 10.1107921,14.227292 10.5195747,14.264454 L10.5195747,14.8664763 C10.5195747,15.0671514 10.5827493,15.2288039 10.7091003,15.3514387 C10.8354513,15.4740735 10.9952457,15.53539 11.1884884,15.53539 C11.3891635,15.53539 11.550816,15.4740735 11.6734508,15.3514387 C11.7960856,15.2288039 11.857402,15.0671514 11.857402,14.8664763 L11.857402,14.2310083 C12.5560487,14.1120898 13.1116131,13.8463851 13.5241119,13.4338862 Z" id="Combined-Shape"></path>
            </g>
        </g>
    </g>
</svg>
